<?xml version="1.0" standalone="no"?>
<!DOCTYPE svg PUBLIC "-//W3C//DTD SVG 20010904//EN"
 "http://www.w3.org/TR/2001/REC-SVG-20010904/DTD/svg10.dtd">
<svg version="1.0" xmlns="http://www.w3.org/2000/svg"
 width="512.000000pt" height="512.000000pt" viewBox="0 0 512.000000 512.000000"
 preserveAspectRatio="xMidYMid meet">
<metadata>
Created by potrace 1.14, written by Peter Selinger 2001-2017
</metadata>
<g transform="translate(0.000000,512.000000) scale(0.100000,-0.100000)"
fill="#000000" stroke="none">
<path d="M2398 5095 c-2 -1 -37 -5 -78 -9 -41 -3 -88 -8 -105 -11 -38 -6 -79
-13 -130 -21 -171 -26 -468 -125 -657 -220 -798 -398 -1323 -1156 -1416 -2044
-14 -134 -6 -510 12 -606 3 -12 7 -39 11 -60 13 -84 17 -103 45 -214 51 -201
99 -329 196 -523 75 -150 165 -291 276 -434 84 -107 110 -134 60 -60 -54 77
-138 221 -175 297 -68 142 -150 373 -163 460 -3 19 -9 49 -14 65 -5 17 -12 50
-15 75 -3 25 -8 56 -10 70 -22 124 -22 487 0 570 2 8 7 35 10 60 27 196 121
479 216 651 21 40 39 73 39 75 0 12 170 267 189 284 3 3 32 36 65 73 271 314
625 544 1021 666 110 33 252 66 330 76 28 4 61 9 75 11 47 10 395 12 470 4
131 -16 163 -21 260 -42 219 -47 503 -160 690 -275 595 -368 988 -998 1046
-1678 7 -84 7 -334 -1 -390 -2 -22 -7 -64 -11 -93 -6 -60 -7 -68 -30 -172
-139 -645 -579 -1207 -1174 -1501 -85 -41 -221 -98 -305 -127 -68 -23 10 -10
103 18 236 70 342 112 527 209 719 376 1234 1109 1341 1911 28 212 26 555 -5
740 -99 592 -369 1095 -798 1490 -102 94 -125 113 -218 181 -359 260 -721 407
-1170 475 -92 13 -495 29 -507 19z"/>
<path d="M1819 3706 c-2 -2 -33 -7 -68 -10 -248 -26 -525 -162 -724 -355 -199
-192 -326 -430 -382 -711 -17 -85 -23 -318 -10 -390 3 -19 8 -48 11 -65 27
-171 110 -373 214 -520 41 -59 122 -156 126 -152 2 1 -8 41 -22 87 -70 242
-84 543 -38 825 33 204 79 347 174 540 58 117 174 300 223 349 6 7 33 36 59
63 63 69 170 158 248 209 63 40 226 125 234 121 3 -1 8 1 12 6 7 7 -49 11 -57
3z"/>
<path d="M3260 3695 c0 -3 19 -14 42 -26 221 -113 450 -338 582 -574 78 -140
152 -351 171 -490 2 -22 8 -60 11 -85 7 -55 7 -225 -1 -300 -22 -224 -110
-473 -235 -665 -358 -549 -1031 -799 -1654 -614 -164 49 -319 126 -455 227
-99 73 -241 217 -315 320 -77 109 -165 283 -204 407 -32 101 -35 112 -53 220
-6 33 -12 62 -15 64 -6 6 3 -237 10 -269 3 -14 8 -41 11 -60 41 -278 186 -593
374 -810 242 -280 545 -461 906 -542 125 -27 187 -33 360 -33 162 1 210 5 325
29 213 45 387 117 581 242 41 26 76 50 79 54 3 3 25 21 50 40 190 148 380 400
475 630 101 245 135 426 130 690 -5 276 -56 477 -180 721 -161 315 -428 574
-750 729 -98 47 -245 104 -245 95z"/>
<path d="M2470 3619 c-30 -4 -74 -10 -96 -12 -140 -16 -358 -113 -490 -218
-271 -215 -422 -542 -410 -884 6 -159 25 -248 84 -385 73 -172 170 -302 317
-425 79 -66 84 -62 12 11 -224 230 -313 528 -252 844 3 14 16 59 30 101 159
483 692 753 1177 598 288 -92 514 -316 604 -597 36 -114 39 -137 38 -297 -1
-133 -4 -160 -27 -238 -43 -139 -93 -237 -176 -337 -44 -55 -60 -70 -136 -138
-44 -38 -34 -35 35 12 43 30 146 121 179 159 9 10 24 28 35 40 61 71 139 208
175 309 52 143 70 258 65 413 -4 120 -6 134 -38 265 -2 8 -16 47 -31 85 -117
311 -383 558 -700 650 -114 33 -124 35 -225 41 -47 3 -92 6 -100 8 -8 1 -40
-1 -70 -5z"/>
<path d="M2480 2759 c-158 -27 -302 -155 -352 -314 -17 -53 -18 -176 -3 -239
72 -281 383 -419 646 -286 24 13 46 26 49 29 3 4 18 17 35 29 86 67 145 191
151 318 7 165 -63 303 -198 394 -97 64 -212 89 -328 69z"/>
</g>
</svg>
